<svg width="480" height="480" xmlns="http://www.w3.org/2000/svg" class="svg-inline--fa fa-dumbbell fa-w-20">
 <!-- Created with Method Draw - http://github.com/duopixel/Method-Draw/ -->

 <g id="Layer_1">
  <title>Layer 1</title>
  <ellipse ry="226" rx="214.5" id="svg_4" cy="237.8" cx="238" opacity="undefined" stroke-dasharray="null" stroke-width="null" stroke="#74556D" fill="#ff00ff"/>
  <g stroke="null" transform="rotate(75 244.9999237060547,228.5000305175781) " id="svg_24">
   <g stroke="null" transform="matrix(0.5087604716338117,0,0,0.3518863871785838,-925.7898021048886,-667.4096432242357) " id="svg_6">
    <g stroke="null" id="svg_7">
     <path stroke="null" id="svg_8" d="m2491.35725,2698.43065c-6.521,-31.26 -30.876,-56.531 -62.065,-64.385c-21.334,-5.354 -42.773,-2.656 -61.565,7.604l-24.072,-54.426l92.117,-221.064c2.771,-6.656 4.167,-13.667 4.167,-20.844c0,-18.156 -9.021,-35.01 -24.126,-45.083l-12.626,-8.417c-2.625,-1.76 -5.896,-2.26 -8.896,-1.365c-3.021,0.875 -5.5,3.042 -6.771,5.927l-86.252,195.013l-86.255,-195.012c-1.271,-2.885 -3.75,-5.052 -6.771,-5.927c-3.021,-0.896 -6.292,-0.396 -8.896,1.365l-12.625,8.417c-15.105,10.072 -24.126,26.926 -24.126,45.082c0,7.177 1.396,14.187 4.167,20.844l92.114,221.083l-24.091,54.417c-12.396,-6.771 -26.084,-10.302 -40.189,-10.302c-47.064,0 -85.337,38.281 -85.337,85.333c0,47.052 38.272,85.333 85.337,85.333c47.064,0 85.337,-38.281 85.337,-85.333c0,-31.553 10.326,-54.621 21.32,-70.391c10.688,15.298 20.671,37.202 21.307,67.349c1,47.188 36.522,85.948 80.836,88.26c1.542,0.073 3.063,0.115 4.563,0.115c25.022,0 48.439,-10.729 64.815,-29.844c17.375,-20.28 24.146,-47.166 18.583,-73.749zm-296.764,60.927c-23.521,0 -42.667,-19.135 -42.667,-42.667s19.146,-42.667 42.667,-42.667c23.521,0 42.667,19.135 42.667,42.667s-19.146,42.667 -42.667,42.667zm106.666,-149.333c-11.771,0 -21.333,-9.573 -21.333,-21.333s9.563,-21.333 21.333,-21.333c11.771,0 21.333,9.573 21.333,21.333s-9.562,21.333 -21.333,21.333zm106.667,149.333c-23.521,0 -42.667,-19.135 -42.667,-42.667s19.146,-42.667 42.667,-42.667c23.521,0 42.667,19.135 42.667,42.667s-19.146,42.667 -42.667,42.667z"/>
    </g>
   </g>
   <g stroke="null" transform="matrix(0.5087604716338117,0,0,0.3518863871785838,-925.7898021048886,-667.4096432242357) " id="svg_9"/>
   <g stroke="null" transform="matrix(0.5087604716338117,0,0,0.3518863871785838,-925.7898021048886,-667.4096432242357) " id="svg_10"/>
   <g stroke="null" transform="matrix(0.5087604716338117,0,0,0.3518863871785838,-925.7898021048886,-667.4096432242357) " id="svg_11"/>
   <g stroke="null" transform="matrix(0.5087604716338117,0,0,0.3518863871785838,-925.7898021048886,-667.4096432242357) " id="svg_12"/>
   <g stroke="null" transform="matrix(0.5087604716338117,0,0,0.3518863871785838,-925.7898021048886,-667.4096432242357) " id="svg_13"/>
   <g stroke="null" transform="matrix(0.5087604716338117,0,0,0.3518863871785838,-925.7898021048886,-667.4096432242357) " id="svg_14"/>
   <g stroke="null" transform="matrix(0.5087604716338117,0,0,0.3518863871785838,-925.7898021048886,-667.4096432242357) " id="svg_15"/>
   <g stroke="null" transform="matrix(0.5087604716338117,0,0,0.3518863871785838,-925.7898021048886,-667.4096432242357) " id="svg_16"/>
   <g stroke="null" transform="matrix(0.5087604716338117,0,0,0.3518863871785838,-925.7898021048886,-667.4096432242357) " id="svg_17"/>
   <g stroke="null" transform="matrix(0.5087604716338117,0,0,0.3518863871785838,-925.7898021048886,-667.4096432242357) " id="svg_18"/>
   <g stroke="null" transform="matrix(0.5087604716338117,0,0,0.3518863871785838,-925.7898021048886,-667.4096432242357) " id="svg_19"/>
   <g stroke="null" transform="matrix(0.5087604716338117,0,0,0.3518863871785838,-925.7898021048886,-667.4096432242357) " id="svg_20"/>
   <g stroke="null" transform="matrix(0.5087604716338117,0,0,0.3518863871785838,-925.7898021048886,-667.4096432242357) " id="svg_21"/>
   <g stroke="null" transform="matrix(0.5087604716338117,0,0,0.3518863871785838,-925.7898021048886,-667.4096432242357) " id="svg_22"/>
   <g stroke="null" transform="matrix(0.5087604716338117,0,0,0.3518863871785838,-925.7898021048886,-667.4096432242357) " id="svg_23"/>
  </g>
 </g>
</svg>