<svg width="480" height="480" xmlns="http://www.w3.org/2000/svg" class="svg-inline--fa fa-dumbbell fa-w-20">
 <!-- Created with Method Draw - http://github.com/duopixel/Method-Draw/ -->

 <g id="Layer_1">
  <title>Layer 1</title>
  <ellipse fill="#007fff" stroke="#74556D" stroke-width="null" stroke-dasharray="null" opacity="undefined" cx="251" cy="240.8" id="svg_4" rx="214.5" ry="226"/>
  <g stroke="null" id="svg_22">
   <path fill="#000000" stroke="null" id="svg_6" d="m344.09339,163.12408l-23.01527,-8.53528c-1.40546,-6.82928 -7.05138,-12.29703 -14.31682,-13.99407l-1.24477,-13.18379c-0.17791,-1.88061 -1.55065,-3.48586 -3.49671,-4.08828c-1.94663,-0.60243 -4.09642,-0.08862 -5.47548,1.31036l-6.02125,6.10447l-3.69413,-11.88557c-0.61521,-1.97926 -2.54864,-3.36875 -4.78681,-3.44049c-2.23702,-0.06383 -4.27146,1.19114 -5.03531,3.12714l-31.87153,80.82142c-22.92689,5.4725 -42.94702,18.95803 -55.24375,37.30836c-11.26316,16.80786 -14.76159,36.06447 -9.85081,54.22173c2.87002,10.61213 8.3191,17.60494 13.89329,22.19015l-4.38394,0c-0.04132,0 -0.08264,0.00053 -0.12396,0.00158c-20.7375,0.46475 -39.95534,-10.37264 -48.92925,-27.59302c-1.23214,-2.36487 -4.3168,-3.36294 -6.88954,-2.23088c-2.57275,1.13311 -3.65912,3.96801 -2.4264,6.33288c10.50792,20.165 32.75647,33.0001 56.9792,33.0001c0.48321,0 98.61086,0 98.61086,0c2.8528,0 5.16501,-2.12538 5.16501,-4.74768c0,-12.77971 -11.08927,-18.60459 -20.87638,-20.74264c4.5762,-8.20083 4.9716,-15.4131 4.45281,-20.13124l1.34979,-0.16564l30.95732,43.63281c0.9538,1.34359 2.58078,2.15387 4.32655,2.15387l18.79775,0c1.88064,0 3.61321,-0.94004 4.52168,-2.4535c0.90904,-1.51346 0.8505,-3.36189 -0.15208,-4.8247c-0.19971,-0.29119 -19.60751,-28.61641 -30.04082,-44.47473l0,-79.7743c1.53573,0.16248 3.26027,0.24424 4.78337,0.24424c14.98368,0 29.07554,-7.77038 36.66293,-21.54816c0.00631,-0.01108 0.20086,-0.38456 0.23185,-0.45631c1.06743,-2.43134 -0.21177,-5.19819 -2.8574,-6.17885z"/>
   <g stroke="null" transform="matrix(0.5738895236580779,0,0,0.5275205507931611,-512.8990982299438,-593.8451335072677) " id="svg_7"/>
   <g stroke="null" transform="matrix(0.5738895236580779,0,0,0.5275205507931611,-512.8990982299438,-593.8451335072677) " id="svg_8"/>
   <g stroke="null" transform="matrix(0.5738895236580779,0,0,0.5275205507931611,-512.8990982299438,-593.8451335072677) " id="svg_9"/>
   <g stroke="null" transform="matrix(0.5738895236580779,0,0,0.5275205507931611,-512.8990982299438,-593.8451335072677) " id="svg_10"/>
   <g stroke="null" transform="matrix(0.5738895236580779,0,0,0.5275205507931611,-512.8990982299438,-593.8451335072677) " id="svg_11"/>
   <g stroke="null" transform="matrix(0.5738895236580779,0,0,0.5275205507931611,-512.8990982299438,-593.8451335072677) " id="svg_12"/>
   <g stroke="null" transform="matrix(0.5738895236580779,0,0,0.5275205507931611,-512.8990982299438,-593.8451335072677) " id="svg_13"/>
   <g stroke="null" transform="matrix(0.5738895236580779,0,0,0.5275205507931611,-512.8990982299438,-593.8451335072677) " id="svg_14"/>
   <g stroke="null" transform="matrix(0.5738895236580779,0,0,0.5275205507931611,-512.8990982299438,-593.8451335072677) " id="svg_15"/>
   <g stroke="null" transform="matrix(0.5738895236580779,0,0,0.5275205507931611,-512.8990982299438,-593.8451335072677) " id="svg_16"/>
   <g stroke="null" transform="matrix(0.5738895236580779,0,0,0.5275205507931611,-512.8990982299438,-593.8451335072677) " id="svg_17"/>
   <g stroke="null" transform="matrix(0.5738895236580779,0,0,0.5275205507931611,-512.8990982299438,-593.8451335072677) " id="svg_18"/>
   <g stroke="null" transform="matrix(0.5738895236580779,0,0,0.5275205507931611,-512.8990982299438,-593.8451335072677) " id="svg_19"/>
   <g stroke="null" transform="matrix(0.5738895236580779,0,0,0.5275205507931611,-512.8990982299438,-593.8451335072677) " id="svg_20"/>
   <g stroke="null" transform="matrix(0.5738895236580779,0,0,0.5275205507931611,-512.8990982299438,-593.8451335072677) " id="svg_21"/>
  </g>
 </g>
</svg>