<svg width="480" height="480" xmlns="http://www.w3.org/2000/svg" class="svg-inline--fa fa-dumbbell fa-w-20">
 <!-- Created with Method Draw - http://github.com/duopixel/Method-Draw/ -->

 <g id="Layer_1">
  <title>Layer 1</title>
  <ellipse ry="226" rx="214.5" id="svg_4" cy="238.8" cx="245" opacity="undefined" stroke-dasharray="null" stroke-width="null" stroke="#74556D" fill="#00ff00"/>
  <g stroke="null" id="svg_10">
   <path stroke="null" id="svg_9" d="m161.4125,150.2857l-19.575,0c-5.42391,0 -9.7875,5.73214 -9.7875,12.85714l0,55.71429l-9.7875,0c-1.79437,0 -3.2625,1.92857 -3.2625,4.28571l0,25.71429c0,2.35714 1.46812,4.28571 3.2625,4.28571l9.7875,0l0,55.71429c0,7.125 4.36359,12.85714 9.7875,12.85714l19.575,0c5.42391,0 9.7875,-5.73214 9.7875,-12.85714l0,-145.71429c0,-7.125 -4.36359,-12.85714 -9.7875,-12.85714zm215.325,68.57143l-9.7875,0l0,-55.71429c0,-7.125 -4.36359,-12.85714 -9.7875,-12.85714l-19.575,0c-5.42391,0 -9.7875,5.73214 -9.7875,12.85714l0,145.71429c0,7.125 4.36359,12.85714 9.7875,12.85714l19.575,0c5.42391,0 9.7875,-5.73214 9.7875,-12.85714l0,-55.71429l9.7875,0c1.79437,0 3.2625,-1.92857 3.2625,-4.28571l0,-25.71429c0,-2.35714 -1.46812,-4.28571 -3.2625,-4.28571zm-71.775,-102.85715l-19.575,0c-5.42391,0 -9.7875,5.73214 -9.7875,12.85714l0,90l-52.2,0l0,-90c0,-7.125 -4.36359,-12.85714 -9.7875,-12.85714l-19.575,0c-5.42391,0 -9.7875,5.73214 -9.7875,12.85714l0,214.28573c0,7.125 4.36359,12.85714 9.7875,12.85714l19.575,0c5.42391,0 9.7875,-5.73214 9.7875,-12.85714l0,-90l52.2,0l0,90c0,7.125 4.36359,12.85714 9.7875,12.85714l19.575,0c5.42391,0 9.7875,-5.73214 9.7875,-12.85714l0,-214.28573c0,-7.125 -4.36359,-12.85714 -9.7875,-12.85714z" fill="currentColor"/>
  </g>
 </g>
</svg>